<?xml version="1.0" encoding="UTF-8" standalone="no"?>
<!DOCTYPE svg PUBLIC "-//W3C//DTD SVG 1.1//EN"
 "http://www.w3.org/Graphics/SVG/1.1/DTD/svg11.dtd">
<!-- Generated by graphviz version 2.43.0 (0)
 -->
<!-- Title: ls::Layer Pages: 1 -->
<svg width="251pt" height="252pt"
 viewBox="0.00 0.00 251.00 252.00" xmlns="http://www.w3.org/2000/svg" xmlns:xlink="http://www.w3.org/1999/xlink">
<g id="graph0" class="graph" transform="scale(1 1) rotate(0) translate(4 248)">
<title>ls::Layer</title>
<polygon fill="white" stroke="transparent" points="-4,4 -4,-248 247,-248 247,4 -4,4"/>
<!-- Node1 -->
<g id="node1" class="node">
<title>Node1</title>
<g id="a_node1"><a xlink:title="Layer interface.">
<polygon fill="#bfbfbf" stroke="black" points="0,-106.5 0,-125.5 58,-125.5 58,-106.5 0,-106.5"/>
<text text-anchor="middle" x="29" y="-113.5" font-family="Helvetica,sans-Serif" font-size="10.00">ls::Layer</text>
</a>
</g>
</g>
<!-- Node2 -->
<g id="node2" class="node">
<title>Node2</title>
<g id="a_node2"><a xlink:href="classls_1_1LambertianLayer.html" target="_top" xlink:title="Lambertian layer.">
<polygon fill="white" stroke="black" points="112,-224.5 112,-243.5 225,-243.5 225,-224.5 112,-224.5"/>
<text text-anchor="middle" x="168.5" y="-231.5" font-family="Helvetica,sans-Serif" font-size="10.00">ls::LambertianLayer</text>
</a>
</g>
</g>
<!-- Node1&#45;&gt;Node2 -->
<g id="edge1" class="edge">
<title>Node1&#45;&gt;Node2</title>
<path fill="none" stroke="midnightblue" d="M37.25,-135.09C46.8,-157.64 65.77,-194.64 94,-215 99.34,-218.86 105.41,-221.93 111.7,-224.38"/>
<polygon fill="midnightblue" stroke="midnightblue" points="40.41,-133.56 33.42,-125.59 33.91,-136.18 40.41,-133.56"/>
</g>
<!-- Node3 -->
<g id="node3" class="node">
<title>Node3</title>
<g id="a_node3"><a xlink:href="classls_1_1MicrosurfaceConductiveLayer.html" target="_top" xlink:title="Microsurface conductive layer.">
<polygon fill="white" stroke="black" points="94,-175 94,-205 243,-205 243,-175 94,-175"/>
<text text-anchor="start" x="102" y="-193" font-family="Helvetica,sans-Serif" font-size="10.00">ls::MicrosurfaceConductive</text>
<text text-anchor="middle" x="168.5" y="-182" font-family="Helvetica,sans-Serif" font-size="10.00">Layer</text>
</a>
</g>
</g>
<!-- Node1&#45;&gt;Node3 -->
<g id="edge2" class="edge">
<title>Node1&#45;&gt;Node3</title>
<path fill="none" stroke="midnightblue" d="M47.71,-132.6C59.95,-143.34 77.01,-156.95 94,-166 100.28,-169.34 107.11,-172.33 113.99,-174.97"/>
<polygon fill="midnightblue" stroke="midnightblue" points="49.85,-129.81 40.08,-125.72 45.16,-135.01 49.85,-129.81"/>
</g>
<!-- Node4 -->
<g id="node4" class="node">
<title>Node4</title>
<g id="a_node4"><a xlink:href="classls_1_1MicrosurfaceDielectricLayer.html" target="_top" xlink:title="Microsurface dielectric layer.">
<polygon fill="white" stroke="black" points="98.5,-126 98.5,-156 238.5,-156 238.5,-126 98.5,-126"/>
<text text-anchor="start" x="106.5" y="-144" font-family="Helvetica,sans-Serif" font-size="10.00">ls::MicrosurfaceDielectric</text>
<text text-anchor="middle" x="168.5" y="-133" font-family="Helvetica,sans-Serif" font-size="10.00">Layer</text>
</a>
</g>
</g>
<!-- Node1&#45;&gt;Node4 -->
<g id="edge3" class="edge">
<title>Node1&#45;&gt;Node4</title>
<path fill="none" stroke="midnightblue" d="M68.03,-122.91C77.52,-124.64 88,-126.55 98.49,-128.45"/>
<polygon fill="midnightblue" stroke="midnightblue" points="68.62,-119.46 58.16,-121.12 67.37,-126.35 68.62,-119.46"/>
</g>
<!-- Node5 -->
<g id="node5" class="node">
<title>Node5</title>
<g id="a_node5"><a xlink:href="classls_1_1MicrosurfaceLambertianLayer.html" target="_top" xlink:title="Microsurface Lambertian layer.">
<polygon fill="white" stroke="black" points="94,-77 94,-107 243,-107 243,-77 94,-77"/>
<text text-anchor="start" x="102" y="-95" font-family="Helvetica,sans-Serif" font-size="10.00">ls::MicrosurfaceLambertian</text>
<text text-anchor="middle" x="168.5" y="-84" font-family="Helvetica,sans-Serif" font-size="10.00">Layer</text>
</a>
</g>
</g>
<!-- Node1&#45;&gt;Node5 -->
<g id="edge4" class="edge">
<title>Node1&#45;&gt;Node5</title>
<path fill="none" stroke="midnightblue" d="M68.01,-109.37C76.13,-107.95 84.97,-106.41 93.92,-104.84"/>
<polygon fill="midnightblue" stroke="midnightblue" points="67.41,-105.92 58.16,-111.09 68.61,-112.81 67.41,-105.92"/>
</g>
<!-- Node6 -->
<g id="node6" class="node">
<title>Node6</title>
<g id="a_node6"><a xlink:href="classls_1_1NullLayer.html" target="_top" xlink:title="Null layer.">
<polygon fill="white" stroke="black" points="130,-38.5 130,-57.5 207,-57.5 207,-38.5 130,-38.5"/>
<text text-anchor="middle" x="168.5" y="-45.5" font-family="Helvetica,sans-Serif" font-size="10.00">ls::NullLayer</text>
</a>
</g>
</g>
<!-- Node1&#45;&gt;Node6 -->
<g id="edge5" class="edge">
<title>Node1&#45;&gt;Node6</title>
<path fill="none" stroke="midnightblue" d="M48.12,-99.46C60.31,-89.11 77.17,-76.23 94,-68 105.17,-62.54 118.04,-58.4 129.87,-55.33"/>
<polygon fill="midnightblue" stroke="midnightblue" points="45.71,-96.91 40.49,-106.13 50.32,-102.18 45.71,-96.91"/>
</g>
<!-- Node7 -->
<g id="node7" class="node">
<title>Node7</title>
<g id="a_node7"><a xlink:href="classls_1_1OrenNayarDiffuseLayer.html" target="_top" xlink:title="Oren&#45;Nayar diffuse layer.">
<polygon fill="white" stroke="black" points="95.5,-0.5 95.5,-19.5 241.5,-19.5 241.5,-0.5 95.5,-0.5"/>
<text text-anchor="middle" x="168.5" y="-7.5" font-family="Helvetica,sans-Serif" font-size="10.00">ls::OrenNayarDiffuseLayer</text>
</a>
</g>
</g>
<!-- Node1&#45;&gt;Node7 -->
<g id="edge6" class="edge">
<title>Node1&#45;&gt;Node7</title>
<path fill="none" stroke="midnightblue" d="M38.78,-97.45C49.17,-77.51 68.36,-46.35 94,-29 99.79,-25.09 106.33,-21.98 113.06,-19.51"/>
<polygon fill="midnightblue" stroke="midnightblue" points="35.61,-95.96 34.27,-106.47 41.87,-99.09 35.61,-95.96"/>
</g>
</g>
</svg>
