<?xml version="1.0" encoding="UTF-8" standalone="no"?>
<!DOCTYPE svg PUBLIC "-//W3C//DTD SVG 1.1//EN"
 "http://www.w3.org/Graphics/SVG/1.1/DTD/svg11.dtd">
<!-- Generated by graphviz version 2.40.1 (20161225.0304)
 -->
<!-- Title: ls::Medium Pages: 1 -->
<svg width="381pt" height="84pt"
 viewBox="0.00 0.00 380.50 84.00" xmlns="http://www.w3.org/2000/svg" xmlns:xlink="http://www.w3.org/1999/xlink">
<g id="graph0" class="graph" transform="scale(1 1) rotate(0) translate(4 80)">
<title>ls::Medium</title>
<polygon fill="#ffffff" stroke="transparent" points="-4,4 -4,-80 376.5,-80 376.5,4 -4,4"/>
<!-- Node0 -->
<g id="node1" class="node">
<title>Node0</title>
<polygon fill="#bfbfbf" stroke="#000000" points="183.5,-56.5 183.5,-75.5 248.5,-75.5 248.5,-56.5 183.5,-56.5"/>
<text text-anchor="middle" x="216" y="-63.5" font-family="Helvetica,sans-Serif" font-size="10.00" fill="#000000">ls::Medium</text>
</g>
<!-- Node1 -->
<g id="node2" class="node">
<title>Node1</title>
<g id="a_node2"><a xlink:href="classls_1_1HenyeyGreensteinMedium.html" target="_top" xlink:title="Henyey&#45;Greenstein medium. ">
<polygon fill="#ffffff" stroke="#000000" points="0,-.5 0,-19.5 146,-19.5 146,-.5 0,-.5"/>
<text text-anchor="middle" x="73" y="-7.5" font-family="Helvetica,sans-Serif" font-size="10.00" fill="#000000">ls::HenyeyGreensteinMedium</text>
</a>
</g>
</g>
<!-- Node0&#45;&gt;Node1 -->
<g id="edge1" class="edge">
<title>Node0&#45;&gt;Node1</title>
<path fill="none" stroke="#191970" d="M181.9202,-52.6541C155.8427,-42.4419 120.5185,-28.6086 97.2618,-19.5011"/>
<polygon fill="#191970" stroke="#191970" points="180.8297,-55.9858 191.4174,-56.3733 183.3822,-49.4677 180.8297,-55.9858"/>
</g>
<!-- Node2 -->
<g id="node3" class="node">
<title>Node2</title>
<g id="a_node3"><a xlink:href="classls_1_1RayleighMedium.html" target="_top" xlink:title="Rayleigh medium. ">
<polygon fill="#ffffff" stroke="#000000" points="164.5,-.5 164.5,-19.5 267.5,-19.5 267.5,-.5 164.5,-.5"/>
<text text-anchor="middle" x="216" y="-7.5" font-family="Helvetica,sans-Serif" font-size="10.00" fill="#000000">ls::RayleighMedium</text>
</a>
</g>
</g>
<!-- Node0&#45;&gt;Node2 -->
<g id="edge2" class="edge">
<title>Node0&#45;&gt;Node2</title>
<path fill="none" stroke="#191970" d="M216,-46.1575C216,-37.155 216,-26.9199 216,-19.6427"/>
<polygon fill="#191970" stroke="#191970" points="212.5001,-46.2455 216,-56.2455 219.5001,-46.2456 212.5001,-46.2455"/>
</g>
<!-- Node3 -->
<g id="node4" class="node">
<title>Node3</title>
<g id="a_node4"><a xlink:href="classls_1_1SggxMedium.html" target="_top" xlink:title="SGGX medium. ">
<polygon fill="#ffffff" stroke="#000000" points="285.5,-.5 285.5,-19.5 372.5,-19.5 372.5,-.5 285.5,-.5"/>
<text text-anchor="middle" x="329" y="-7.5" font-family="Helvetica,sans-Serif" font-size="10.00" fill="#000000">ls::SggxMedium</text>
</a>
</g>
</g>
<!-- Node0&#45;&gt;Node3 -->
<g id="edge3" class="edge">
<title>Node0&#45;&gt;Node3</title>
<path fill="none" stroke="#191970" d="M244.5792,-51.8368C265.0058,-41.7139 291.9362,-28.3679 309.8281,-19.5011"/>
<polygon fill="#191970" stroke="#191970" points="242.8313,-48.7968 235.4254,-56.3733 245.9396,-55.0688 242.8313,-48.7968"/>
</g>
</g>
</svg>
