<?xml version="1.0" encoding="UTF-8" standalone="no"?>
<!DOCTYPE svg PUBLIC "-//W3C//DTD SVG 1.1//EN"
 "http://www.w3.org/Graphics/SVG/1.1/DTD/svg11.dtd">
<!-- Generated by graphviz version 2.40.1 (20161225.0304)
 -->
<!-- Title: ls::Medium Pages: 1 -->
<svg width="429pt" height="95pt"
 viewBox="0.00 0.00 429.00 95.00" xmlns="http://www.w3.org/2000/svg" xmlns:xlink="http://www.w3.org/1999/xlink">
<g id="graph0" class="graph" transform="scale(1 1) rotate(0) translate(4 91)">
<title>ls::Medium</title>
<polygon fill="#ffffff" stroke="transparent" points="-4,4 -4,-91 425,-91 425,4 -4,4"/>
<!-- Node0 -->
<g id="node1" class="node">
<title>Node0</title>
<polygon fill="#bfbfbf" stroke="#000000" points="190,-67.5 190,-86.5 255,-86.5 255,-67.5 190,-67.5"/>
<text text-anchor="middle" x="222.5" y="-74.5" font-family="Helvetica,sans-Serif" font-size="10.00" fill="#000000">ls::Medium</text>
</g>
<!-- Node1 -->
<g id="node2" class="node">
<title>Node1</title>
<g id="a_node2"><a xlink:href="classls_1_1HenyeyGreensteinPhaseMedium.html" target="_top" xlink:title="Henyey&#45;Greenstein phase medium. ">
<polygon fill="#ffffff" stroke="#000000" points="0,-.5 0,-30.5 139,-30.5 139,-.5 0,-.5"/>
<text text-anchor="start" x="8" y="-18.5" font-family="Helvetica,sans-Serif" font-size="10.00" fill="#000000">ls::HenyeyGreensteinPhase</text>
<text text-anchor="middle" x="69.5" y="-7.5" font-family="Helvetica,sans-Serif" font-size="10.00" fill="#000000">Medium</text>
</a>
</g>
</g>
<!-- Node0&#45;&gt;Node1 -->
<g id="edge1" class="edge">
<title>Node0&#45;&gt;Node1</title>
<path fill="none" stroke="#191970" d="M189.1052,-63.5766C164.8651,-53.833 132.0533,-40.644 106.928,-30.5446"/>
<polygon fill="#191970" stroke="#191970" points="188.0099,-66.9084 198.5938,-67.3906 190.6206,-60.4135 188.0099,-66.9084"/>
</g>
<!-- Node2 -->
<g id="node3" class="node">
<title>Node2</title>
<g id="a_node3"><a xlink:href="classls_1_1RayleighPhaseMedium.html" target="_top" xlink:title="Rayleigh phase medium. ">
<polygon fill="#ffffff" stroke="#000000" points="157,-6 157,-25 288,-25 288,-6 157,-6"/>
<text text-anchor="middle" x="222.5" y="-13" font-family="Helvetica,sans-Serif" font-size="10.00" fill="#000000">ls::RayleighPhaseMedium</text>
</a>
</g>
</g>
<!-- Node0&#45;&gt;Node2 -->
<g id="edge2" class="edge">
<title>Node0&#45;&gt;Node2</title>
<path fill="none" stroke="#191970" d="M222.5,-57.2462C222.5,-46.5519 222.5,-33.814 222.5,-25.2449"/>
<polygon fill="#191970" stroke="#191970" points="219.0001,-57.3906 222.5,-67.3906 226.0001,-57.3907 219.0001,-57.3906"/>
</g>
<!-- Node3 -->
<g id="node4" class="node">
<title>Node3</title>
<g id="a_node4"><a xlink:href="classls_1_1SggxPhaseMedium.html" target="_top" xlink:title="SGGX phase medium. ">
<polygon fill="#ffffff" stroke="#000000" points="306,-6 306,-25 421,-25 421,-6 306,-6"/>
<text text-anchor="middle" x="363.5" y="-13" font-family="Helvetica,sans-Serif" font-size="10.00" fill="#000000">ls::SggxPhaseMedium</text>
</a>
</g>
</g>
<!-- Node0&#45;&gt;Node3 -->
<g id="edge3" class="edge">
<title>Node0&#45;&gt;Node3</title>
<path fill="none" stroke="#191970" d="M253.8116,-63.3428C280.4729,-51.7139 318.0931,-35.3051 341.6235,-25.0419"/>
<polygon fill="#191970" stroke="#191970" points="252.298,-60.1845 244.5313,-67.3906 255.0966,-66.6007 252.298,-60.1845"/>
</g>
</g>
</svg>
