<?xml version="1.0" encoding="UTF-8" standalone="no"?>
<!DOCTYPE svg PUBLIC "-//W3C//DTD SVG 1.1//EN"
 "http://www.w3.org/Graphics/SVG/1.1/DTD/svg11.dtd">
<!-- Generated by graphviz version 2.40.1 (20161225.0304)
 -->
<!-- Title: ls::Layer Pages: 1 -->
<svg width="232pt" height="127pt"
 viewBox="0.00 0.00 232.00 126.50" xmlns="http://www.w3.org/2000/svg" xmlns:xlink="http://www.w3.org/1999/xlink">
<g id="graph0" class="graph" transform="scale(1 1) rotate(0) translate(4 122.5)">
<title>ls::Layer</title>
<polygon fill="#ffffff" stroke="transparent" points="-4,4 -4,-122.5 228,-122.5 228,4 -4,4"/>
<!-- Node0 -->
<g id="node1" class="node">
<title>Node0</title>
<polygon fill="#bfbfbf" stroke="#000000" points="0,-55 0,-74 54,-74 54,-55 0,-55"/>
<text text-anchor="middle" x="27" y="-62" font-family="Helvetica,sans-Serif" font-size="10.00" fill="#000000">ls::Layer</text>
</g>
<!-- Node1 -->
<g id="node2" class="node">
<title>Node1</title>
<g id="a_node2"><a xlink:href="classls_1_1LambertianBsdfLayer.html" target="_top" xlink:title="Lambertian BSDF layer. ">
<polygon fill="#ffffff" stroke="#000000" points="96,-99 96,-118 218,-118 218,-99 96,-99"/>
<text text-anchor="middle" x="157" y="-106" font-family="Helvetica,sans-Serif" font-size="10.00" fill="#000000">ls::LambertianBsdfLayer</text>
</a>
</g>
</g>
<!-- Node0&#45;&gt;Node1 -->
<g id="edge1" class="edge">
<title>Node0&#45;&gt;Node1</title>
<path fill="none" stroke="#191970" d="M58.9781,-77.9172C68.8479,-81.861 79.8037,-86.0411 90,-89.5 99.8468,-92.8403 110.639,-96.0806 120.6301,-98.9111"/>
<polygon fill="#191970" stroke="#191970" points="60.1209,-74.6038 49.5386,-74.0875 57.4892,-81.0903 60.1209,-74.6038"/>
</g>
<!-- Node2 -->
<g id="node3" class="node">
<title>Node2</title>
<g id="a_node3"><a xlink:href="classls_1_1MicrosurfaceDielectricBsdfLayer.html" target="_top" xlink:title="Microsurface dielectric BSDF layer. ">
<polygon fill="#ffffff" stroke="#000000" points="93,-49.5 93,-79.5 221,-79.5 221,-49.5 93,-49.5"/>
<text text-anchor="start" x="101" y="-67.5" font-family="Helvetica,sans-Serif" font-size="10.00" fill="#000000">ls::MicrosurfaceDielectric</text>
<text text-anchor="middle" x="157" y="-56.5" font-family="Helvetica,sans-Serif" font-size="10.00" fill="#000000">BsdfLayer</text>
</a>
</g>
</g>
<!-- Node0&#45;&gt;Node2 -->
<g id="edge2" class="edge">
<title>Node0&#45;&gt;Node2</title>
<path fill="none" stroke="#191970" d="M64.3023,-64.5C73.2453,-64.5 83.0487,-64.5 92.8272,-64.5"/>
<polygon fill="#191970" stroke="#191970" points="64.2523,-61.0001 54.2523,-64.5 64.2522,-68.0001 64.2523,-61.0001"/>
</g>
<!-- Node3 -->
<g id="node4" class="node">
<title>Node3</title>
<g id="a_node4"><a xlink:href="classls_1_1MicrosurfaceLambertianBrdfLayer.html" target="_top" xlink:title="Microsurface Lambertian BRDF layer. ">
<polygon fill="#ffffff" stroke="#000000" points="90,-.5 90,-30.5 224,-30.5 224,-.5 90,-.5"/>
<text text-anchor="start" x="98" y="-18.5" font-family="Helvetica,sans-Serif" font-size="10.00" fill="#000000">ls::MicrosurfaceLambertian</text>
<text text-anchor="middle" x="157" y="-7.5" font-family="Helvetica,sans-Serif" font-size="10.00" fill="#000000">BrdfLayer</text>
</a>
</g>
</g>
<!-- Node0&#45;&gt;Node3 -->
<g id="edge3" class="edge">
<title>Node0&#45;&gt;Node3</title>
<path fill="none" stroke="#191970" d="M61.2001,-51.4226C70.5351,-47.8664 80.6526,-44.0243 90,-40.5 98.5966,-37.2588 107.8216,-33.8024 116.5934,-30.5262"/>
<polygon fill="#191970" stroke="#191970" points="59.9168,-48.1661 51.8204,-54.9998 62.4112,-54.7066 59.9168,-48.1661"/>
</g>
</g>
</svg>
