<?xml version="1.0" encoding="UTF-8" standalone="no"?>
<!DOCTYPE svg PUBLIC "-//W3C//DTD SVG 1.1//EN"
 "http://www.w3.org/Graphics/SVG/1.1/DTD/svg11.dtd">
<!-- Generated by graphviz version 2.40.1 (20161225.0304)
 -->
<!-- Title: ls::Layer Pages: 1 -->
<svg width="232pt" height="215pt"
 viewBox="0.00 0.00 232.00 214.50" xmlns="http://www.w3.org/2000/svg" xmlns:xlink="http://www.w3.org/1999/xlink">
<g id="graph0" class="graph" transform="scale(1 1) rotate(0) translate(4 210.5)">
<title>ls::Layer</title>
<polygon fill="#ffffff" stroke="transparent" points="-4,4 -4,-210.5 228,-210.5 228,4 -4,4"/>
<!-- Node0 -->
<g id="node1" class="node">
<title>Node0</title>
<polygon fill="#bfbfbf" stroke="#000000" points="0,-94 0,-113 54,-113 54,-94 0,-94"/>
<text text-anchor="middle" x="27" y="-101" font-family="Helvetica,sans-Serif" font-size="10.00" fill="#000000">ls::Layer</text>
</g>
<!-- Node1 -->
<g id="node2" class="node">
<title>Node1</title>
<g id="a_node2"><a xlink:href="classls_1_1LambertianBsdfLayer.html" target="_top" xlink:title="Lambertian BSDF layer. ">
<polygon fill="#ffffff" stroke="#000000" points="96,-187 96,-206 218,-206 218,-187 96,-187"/>
<text text-anchor="middle" x="157" y="-194" font-family="Helvetica,sans-Serif" font-size="10.00" fill="#000000">ls::LambertianBsdfLayer</text>
</a>
</g>
</g>
<!-- Node0&#45;&gt;Node1 -->
<g id="edge1" class="edge">
<title>Node0&#45;&gt;Node1</title>
<path fill="none" stroke="#191970" d="M38.1227,-121.9379C49.2275,-138.8083 67.8079,-163.2467 90,-177.5 96.0021,-181.355 102.7964,-184.4423 109.6989,-186.9109"/>
<polygon fill="#191970" stroke="#191970" points="40.7812,-119.5936 32.4773,-113.0137 34.8655,-123.3359 40.7812,-119.5936"/>
</g>
<!-- Node2 -->
<g id="node3" class="node">
<title>Node2</title>
<g id="a_node3"><a xlink:href="classls_1_1MicrosurfaceDielectricBsdfLayer.html" target="_top" xlink:title="Microsurface dielectric BSDF layer. ">
<polygon fill="#ffffff" stroke="#000000" points="93,-137.5 93,-167.5 221,-167.5 221,-137.5 93,-137.5"/>
<text text-anchor="start" x="101" y="-155.5" font-family="Helvetica,sans-Serif" font-size="10.00" fill="#000000">ls::MicrosurfaceDielectric</text>
<text text-anchor="middle" x="157" y="-144.5" font-family="Helvetica,sans-Serif" font-size="10.00" fill="#000000">BsdfLayer</text>
</a>
</g>
</g>
<!-- Node0&#45;&gt;Node2 -->
<g id="edge2" class="edge">
<title>Node0&#45;&gt;Node2</title>
<path fill="none" stroke="#191970" d="M59.8606,-116.7829C69.5423,-120.6306 80.1742,-124.7918 90,-128.5 97.8607,-131.4666 106.2727,-134.5505 114.3885,-137.4802"/>
<polygon fill="#191970" stroke="#191970" points="61.1456,-113.5274 50.5607,-113.0682 58.5489,-120.028 61.1456,-113.5274"/>
</g>
<!-- Node3 -->
<g id="node4" class="node">
<title>Node3</title>
<g id="a_node4"><a xlink:href="classls_1_1MicrosurfaceLambertianBrdfLayer.html" target="_top" xlink:title="Microsurface Lambertian BRDF layer. ">
<polygon fill="#ffffff" stroke="#000000" points="90,-88.5 90,-118.5 224,-118.5 224,-88.5 90,-88.5"/>
<text text-anchor="start" x="98" y="-106.5" font-family="Helvetica,sans-Serif" font-size="10.00" fill="#000000">ls::MicrosurfaceLambertian</text>
<text text-anchor="middle" x="157" y="-95.5" font-family="Helvetica,sans-Serif" font-size="10.00" fill="#000000">BrdfLayer</text>
</a>
</g>
</g>
<!-- Node0&#45;&gt;Node3 -->
<g id="edge3" class="edge">
<title>Node0&#45;&gt;Node3</title>
<path fill="none" stroke="#191970" d="M64.3541,-103.5C72.3823,-103.5 81.1021,-103.5 89.8736,-103.5"/>
<polygon fill="#191970" stroke="#191970" points="64.2523,-100.0001 54.2523,-103.5 64.2522,-107.0001 64.2523,-100.0001"/>
</g>
<!-- Node4 -->
<g id="node5" class="node">
<title>Node4</title>
<g id="a_node5"><a xlink:href="classls_1_1NullBsdfLayer.html" target="_top" xlink:title="Null BSDF layer. ">
<polygon fill="#ffffff" stroke="#000000" points="111,-50 111,-69 203,-69 203,-50 111,-50"/>
<text text-anchor="middle" x="157" y="-57" font-family="Helvetica,sans-Serif" font-size="10.00" fill="#000000">ls::NullBsdfLayer</text>
</a>
</g>
</g>
<!-- Node0&#45;&gt;Node4 -->
<g id="edge4" class="edge">
<title>Node0&#45;&gt;Node4</title>
<path fill="none" stroke="#191970" d="M60.3208,-90.2803C69.8543,-86.6414 80.2929,-82.7928 90,-79.5 100.691,-75.8735 112.4566,-72.2424 123.105,-69.0886"/>
<polygon fill="#191970" stroke="#191970" points="58.8495,-87.0965 50.782,-93.9643 61.3715,-93.6264 58.8495,-87.0965"/>
</g>
<!-- Node5 -->
<g id="node6" class="node">
<title>Node5</title>
<g id="a_node6"><a xlink:href="classls_1_1OrenNayarDiffuseBrdfLayer.html" target="_top" xlink:title="Oren&#45;Nayar diffuse BRDF layer. ">
<polygon fill="#ffffff" stroke="#000000" points="93.5,-.5 93.5,-30.5 220.5,-30.5 220.5,-.5 93.5,-.5"/>
<text text-anchor="start" x="101.5" y="-18.5" font-family="Helvetica,sans-Serif" font-size="10.00" fill="#000000">ls::OrenNayarDiffuseBrdf</text>
<text text-anchor="middle" x="157" y="-7.5" font-family="Helvetica,sans-Serif" font-size="10.00" fill="#000000">Layer</text>
</a>
</g>
</g>
<!-- Node0&#45;&gt;Node5 -->
<g id="edge5" class="edge">
<title>Node0&#45;&gt;Node5</title>
<path fill="none" stroke="#191970" d="M41.0373,-85.7638C52.8398,-71.847 70.8196,-52.8283 90,-40.5 95.8486,-36.7408 102.3445,-33.4299 108.9247,-30.5511"/>
<polygon fill="#191970" stroke="#191970" points="38.1864,-83.7199 34.5313,-93.6643 43.59,-88.1698 38.1864,-83.7199"/>
</g>
</g>
</svg>
