<?xml version="1.0" encoding="UTF-8" standalone="no"?>
<!DOCTYPE svg PUBLIC "-//W3C//DTD SVG 1.1//EN"
 "http://www.w3.org/Graphics/SVG/1.1/DTD/svg11.dtd">
<!-- Generated by graphviz version 2.40.1 (20161225.0304)
 -->
<!-- Title: ls::Medium Pages: 1 -->
<svg width="296pt" height="95pt"
 viewBox="0.00 0.00 296.00 95.00" xmlns="http://www.w3.org/2000/svg" xmlns:xlink="http://www.w3.org/1999/xlink">
<g id="graph0" class="graph" transform="scale(1 1) rotate(0) translate(4 91)">
<title>ls::Medium</title>
<polygon fill="#ffffff" stroke="transparent" points="-4,4 -4,-91 292,-91 292,4 -4,4"/>
<!-- Node0 -->
<g id="node1" class="node">
<title>Node0</title>
<polygon fill="#bfbfbf" stroke="#000000" points="113,-67.5 113,-86.5 178,-86.5 178,-67.5 113,-67.5"/>
<text text-anchor="middle" x="145.5" y="-74.5" font-family="Helvetica,sans-Serif" font-size="10.00" fill="#000000">ls::Medium</text>
</g>
<!-- Node1 -->
<g id="node2" class="node">
<title>Node1</title>
<g id="a_node2"><a xlink:href="classls_1_1HenyeyGreensteinPhaseMedium.html" target="_top" xlink:title="Henyey&#45;Greenstein phase medium. ">
<polygon fill="#ffffff" stroke="#000000" points="0,-.5 0,-30.5 139,-30.5 139,-.5 0,-.5"/>
<text text-anchor="start" x="8" y="-18.5" font-family="Helvetica,sans-Serif" font-size="10.00" fill="#000000">ls::HenyeyGreensteinPhase</text>
<text text-anchor="middle" x="69.5" y="-7.5" font-family="Helvetica,sans-Serif" font-size="10.00" fill="#000000">Medium</text>
</a>
</g>
</g>
<!-- Node0&#45;&gt;Node1 -->
<g id="edge1" class="edge">
<title>Node0&#45;&gt;Node1</title>
<path fill="none" stroke="#191970" d="M125.7752,-61.0385C114.1455,-51.6276 99.5183,-39.7911 88.0917,-30.5446"/>
<polygon fill="#191970" stroke="#191970" points="123.6496,-63.8209 133.625,-67.3906 128.053,-58.3793 123.6496,-63.8209"/>
</g>
<!-- Node2 -->
<g id="node3" class="node">
<title>Node2</title>
<g id="a_node3"><a xlink:href="classls_1_1RayleighPhaseMedium.html" target="_top" xlink:title="Rayleigh phase medium. ">
<polygon fill="#ffffff" stroke="#000000" points="157,-6 157,-25 288,-25 288,-6 157,-6"/>
<text text-anchor="middle" x="222.5" y="-13" font-family="Helvetica,sans-Serif" font-size="10.00" fill="#000000">ls::RayleighPhaseMedium</text>
</a>
</g>
</g>
<!-- Node0&#45;&gt;Node2 -->
<g id="edge2" class="edge">
<title>Node0&#45;&gt;Node2</title>
<path fill="none" stroke="#191970" d="M165.3458,-61.1491C179.653,-49.722 198.4924,-34.6749 210.5532,-25.0419"/>
<polygon fill="#191970" stroke="#191970" points="163.1606,-58.415 157.5313,-67.3906 167.5292,-63.8846 163.1606,-58.415"/>
</g>
</g>
</svg>
