<?xml version="1.0" encoding="UTF-8" standalone="no"?>
<!DOCTYPE svg PUBLIC "-//W3C//DTD SVG 1.1//EN"
 "http://www.w3.org/Graphics/SVG/1.1/DTD/svg11.dtd">
<!-- Generated by graphviz version 2.40.1 (20161225.0304)
 -->
<!-- Title: Graphical Class Hierarchy Pages: 1 -->
<svg width="174pt" height="66pt"
 viewBox="0.00 0.00 174.00 66.00" xmlns="http://www.w3.org/2000/svg" xmlns:xlink="http://www.w3.org/1999/xlink">
<g id="graph0" class="graph" transform="scale(1 1) rotate(0) translate(4 62)">
<title>Graphical Class Hierarchy</title>
<polygon fill="#ffffff" stroke="transparent" points="-4,4 -4,-62 170,-62 170,4 -4,4"/>
<!-- Node0 -->
<g id="node1" class="node">
<title>Node0</title>
<g id="a_node1"><a xlink:href="classLayer.html" target="_top" xlink:title="Layer interface. ">
<polygon fill="#ffffff" stroke="#000000" points="0,-19.5 0,-38.5 41,-38.5 41,-19.5 0,-19.5"/>
<text text-anchor="middle" x="20.5" y="-26.5" font-family="Helvetica,sans-Serif" font-size="10.00" fill="#000000">Layer</text>
</a>
</g>
</g>
<!-- Node1 -->
<g id="node2" class="node">
<title>Node1</title>
<g id="a_node2"><a xlink:href="classDielectricLayer.html" target="_top" xlink:title="Dielectric layer. ">
<polygon fill="#ffffff" stroke="#000000" points="80.5,-38.5 80.5,-57.5 162.5,-57.5 162.5,-38.5 80.5,-38.5"/>
<text text-anchor="middle" x="121.5" y="-45.5" font-family="Helvetica,sans-Serif" font-size="10.00" fill="#000000">DielectricLayer</text>
</a>
</g>
</g>
<!-- Node0&#45;&gt;Node1 -->
<g id="edge1" class="edge">
<title>Node0&#45;&gt;Node1</title>
<path fill="none" stroke="#191970" d="M51.511,-34.8338C60.5604,-36.5361 70.5961,-38.424 80.1758,-40.2261"/>
<polygon fill="#191970" stroke="#191970" points="51.902,-31.346 41.4273,-32.9368 50.6078,-38.2253 51.902,-31.346"/>
</g>
<!-- Node2 -->
<g id="node3" class="node">
<title>Node2</title>
<g id="a_node3"><a xlink:href="classLambertianLayer.html" target="_top" xlink:title="Lambertian layer. ">
<polygon fill="#ffffff" stroke="#000000" points="77,-.5 77,-19.5 166,-19.5 166,-.5 77,-.5"/>
<text text-anchor="middle" x="121.5" y="-7.5" font-family="Helvetica,sans-Serif" font-size="10.00" fill="#000000">LambertianLayer</text>
</a>
</g>
</g>
<!-- Node0&#45;&gt;Node2 -->
<g id="edge2" class="edge">
<title>Node0&#45;&gt;Node2</title>
<path fill="none" stroke="#191970" d="M51.4472,-23.1783C59.4753,-21.668 68.2832,-20.0111 76.8623,-18.3972"/>
<polygon fill="#191970" stroke="#191970" points="50.6078,-19.7747 41.4273,-25.0632 51.902,-26.654 50.6078,-19.7747"/>
</g>
</g>
</svg>
