<?xml version="1.0" encoding="UTF-8" standalone="no"?>
<!DOCTYPE svg PUBLIC "-//W3C//DTD SVG 1.1//EN"
 "http://www.w3.org/Graphics/SVG/1.1/DTD/svg11.dtd">
<!-- Generated by graphviz version 2.40.1 (20161225.0304)
 -->
<!-- Title: Graphical Class Hierarchy Pages: 1 -->
<svg width="234pt" height="264pt"
 viewBox="0.00 0.00 234.00 263.50" xmlns="http://www.w3.org/2000/svg" xmlns:xlink="http://www.w3.org/1999/xlink">
<g id="graph0" class="graph" transform="scale(1 1) rotate(0) translate(4 259.5)">
<title>Graphical Class Hierarchy</title>
<polygon fill="#ffffff" stroke="transparent" points="-4,4 -4,-259.5 230,-259.5 230,4 -4,4"/>
<!-- Node0 -->
<g id="node1" class="node">
<title>Node0</title>
<g id="a_node1"><a xlink:href="classls_1_1Layer.html" target="_top" xlink:title="Layer interface. ">
<polygon fill="#ffffff" stroke="#000000" points="0,-118 0,-137 54,-137 54,-118 0,-118"/>
<text text-anchor="middle" x="27" y="-125" font-family="Helvetica,sans-Serif" font-size="10.00" fill="#000000">ls::Layer</text>
</a>
</g>
</g>
<!-- Node1 -->
<g id="node2" class="node">
<title>Node1</title>
<g id="a_node2"><a xlink:href="classls_1_1LambertianBsdfLayer.html" target="_top" xlink:title="Lambertian BSDF layer. ">
<polygon fill="#ffffff" stroke="#000000" points="97,-236 97,-255 219,-255 219,-236 97,-236"/>
<text text-anchor="middle" x="158" y="-243" font-family="Helvetica,sans-Serif" font-size="10.00" fill="#000000">ls::LambertianBsdfLayer</text>
</a>
</g>
</g>
<!-- Node0&#45;&gt;Node1 -->
<g id="edge1" class="edge">
<title>Node0&#45;&gt;Node1</title>
<path fill="none" stroke="#191970" d="M34.1244,-146.4987C43.5155,-168.9504 62.1741,-205.8573 90,-226.5 95.2176,-230.3707 101.1894,-233.4531 107.3795,-235.9076"/>
<polygon fill="#191970" stroke="#191970" points="37.3102,-145.0381 30.3603,-137.0413 30.8064,-147.6267 37.3102,-145.0381"/>
</g>
<!-- Node2 -->
<g id="node3" class="node">
<title>Node2</title>
<g id="a_node3"><a xlink:href="classls_1_1MicrosurfaceConductiveBrdfLayer.html" target="_top" xlink:title="Microsurface conductive BRDF layer. ">
<polygon fill="#ffffff" stroke="#000000" points="90,-186.5 90,-216.5 226,-216.5 226,-186.5 90,-186.5"/>
<text text-anchor="start" x="98" y="-204.5" font-family="Helvetica,sans-Serif" font-size="10.00" fill="#000000">ls::MicrosurfaceConductive</text>
<text text-anchor="middle" x="158" y="-193.5" font-family="Helvetica,sans-Serif" font-size="10.00" fill="#000000">BrdfLayer</text>
</a>
</g>
</g>
<!-- Node0&#45;&gt;Node2 -->
<g id="edge2" class="edge">
<title>Node0&#45;&gt;Node2</title>
<path fill="none" stroke="#191970" d="M44.463,-143.9845C56.5161,-154.6744 73.3196,-168.2773 90,-177.5 95.9163,-180.7712 102.3623,-183.7302 108.8513,-186.3632"/>
<polygon fill="#191970" stroke="#191970" points="46.6899,-141.2788 36.9374,-137.1389 41.9796,-146.457 46.6899,-141.2788"/>
</g>
<!-- Node3 -->
<g id="node4" class="node">
<title>Node3</title>
<g id="a_node4"><a xlink:href="classls_1_1MicrosurfaceDielectricBsdfLayer.html" target="_top" xlink:title="Microsurface dielectric BSDF layer. ">
<polygon fill="#ffffff" stroke="#000000" points="94,-137.5 94,-167.5 222,-167.5 222,-137.5 94,-137.5"/>
<text text-anchor="start" x="102" y="-155.5" font-family="Helvetica,sans-Serif" font-size="10.00" fill="#000000">ls::MicrosurfaceDielectric</text>
<text text-anchor="middle" x="158" y="-144.5" font-family="Helvetica,sans-Serif" font-size="10.00" fill="#000000">BsdfLayer</text>
</a>
</g>
</g>
<!-- Node0&#45;&gt;Node3 -->
<g id="edge3" class="edge">
<title>Node0&#45;&gt;Node3</title>
<path fill="none" stroke="#191970" d="M64.177,-134.5949C73.4647,-136.3673 83.6934,-138.3194 93.8777,-140.2629"/>
<polygon fill="#191970" stroke="#191970" points="64.6221,-131.1167 54.1433,-132.68 63.3099,-137.9926 64.6221,-131.1167"/>
</g>
<!-- Node4 -->
<g id="node5" class="node">
<title>Node4</title>
<g id="a_node5"><a xlink:href="classls_1_1MicrosurfaceLambertianBrdfLayer.html" target="_top" xlink:title="Microsurface Lambertian BRDF layer. ">
<polygon fill="#ffffff" stroke="#000000" points="91,-88.5 91,-118.5 225,-118.5 225,-88.5 91,-88.5"/>
<text text-anchor="start" x="99" y="-106.5" font-family="Helvetica,sans-Serif" font-size="10.00" fill="#000000">ls::MicrosurfaceLambertian</text>
<text text-anchor="middle" x="158" y="-95.5" font-family="Helvetica,sans-Serif" font-size="10.00" fill="#000000">BrdfLayer</text>
</a>
</g>
</g>
<!-- Node0&#45;&gt;Node4 -->
<g id="edge4" class="edge">
<title>Node0&#45;&gt;Node4</title>
<path fill="none" stroke="#191970" d="M63.9897,-120.7233C72.4211,-119.1786 81.6357,-117.4904 90.893,-115.7944"/>
<polygon fill="#191970" stroke="#191970" points="63.3488,-117.2823 54.1433,-122.5272 64.6103,-124.1677 63.3488,-117.2823"/>
</g>
<!-- Node5 -->
<g id="node6" class="node">
<title>Node5</title>
<g id="a_node6"><a xlink:href="classls_1_1NullBsdfLayer.html" target="_top" xlink:title="Null BSDF layer. ">
<polygon fill="#ffffff" stroke="#000000" points="112,-50 112,-69 204,-69 204,-50 112,-50"/>
<text text-anchor="middle" x="158" y="-57" font-family="Helvetica,sans-Serif" font-size="10.00" fill="#000000">ls::NullBsdfLayer</text>
</a>
</g>
</g>
<!-- Node0&#45;&gt;Node5 -->
<g id="edge5" class="edge">
<title>Node0&#45;&gt;Node5</title>
<path fill="none" stroke="#191970" d="M44.8517,-111.0566C56.8545,-100.7492 73.4531,-87.8754 90,-79.5 98.2344,-75.332 107.4805,-71.8896 116.4387,-69.1054"/>
<polygon fill="#191970" stroke="#191970" points="42.5125,-108.4529 37.3335,-117.6957 47.146,-113.7 42.5125,-108.4529"/>
</g>
<!-- Node6 -->
<g id="node7" class="node">
<title>Node6</title>
<g id="a_node7"><a xlink:href="classls_1_1OrenNayarDiffuseBrdfLayer.html" target="_top" xlink:title="Oren&#45;Nayar diffuse BRDF layer. ">
<polygon fill="#ffffff" stroke="#000000" points="94.5,-.5 94.5,-30.5 221.5,-30.5 221.5,-.5 94.5,-.5"/>
<text text-anchor="start" x="102.5" y="-18.5" font-family="Helvetica,sans-Serif" font-size="10.00" fill="#000000">ls::OrenNayarDiffuseBrdf</text>
<text text-anchor="middle" x="158" y="-7.5" font-family="Helvetica,sans-Serif" font-size="10.00" fill="#000000">Layer</text>
</a>
</g>
</g>
<!-- Node0&#45;&gt;Node6 -->
<g id="edge6" class="edge">
<title>Node0&#45;&gt;Node6</title>
<path fill="none" stroke="#191970" d="M36.2114,-108.8427C46.7371,-89.2902 65.6937,-58.9081 90,-40.5 95.0135,-36.7031 100.6627,-33.4356 106.5078,-30.6357"/>
<polygon fill="#191970" stroke="#191970" points="32.981,-107.4697 31.4919,-117.9594 39.1974,-110.6878 32.981,-107.4697"/>
</g>
</g>
</svg>
