<?xml version="1.0" encoding="UTF-8" standalone="no"?>
<!DOCTYPE svg PUBLIC "-//W3C//DTD SVG 1.1//EN"
 "http://www.w3.org/Graphics/SVG/1.1/DTD/svg11.dtd">
<!-- Generated by graphviz version 2.40.1 (20161225.0304)
 -->
<!-- Title: Graphical Class Hierarchy Pages: 1 -->
<svg width="232pt" height="165pt"
 viewBox="0.00 0.00 232.00 165.00" xmlns="http://www.w3.org/2000/svg" xmlns:xlink="http://www.w3.org/1999/xlink">
<g id="graph0" class="graph" transform="scale(1 1) rotate(0) translate(4 161)">
<title>Graphical Class Hierarchy</title>
<polygon fill="#ffffff" stroke="transparent" points="-4,4 -4,-161 228,-161 228,4 -4,4"/>
<!-- Node0 -->
<g id="node1" class="node">
<title>Node0</title>
<g id="a_node1"><a xlink:href="classls_1_1Layer.html" target="_top" xlink:title="Layer interface. ">
<polygon fill="#ffffff" stroke="#000000" points="0,-68.5 0,-87.5 54,-87.5 54,-68.5 0,-68.5"/>
<text text-anchor="middle" x="27" y="-75.5" font-family="Helvetica,sans-Serif" font-size="10.00" fill="#000000">ls::Layer</text>
</a>
</g>
</g>
<!-- Node1 -->
<g id="node2" class="node">
<title>Node1</title>
<g id="a_node2"><a xlink:href="classls_1_1LambertianBsdfLayer.html" target="_top" xlink:title="Lambertian BSDF layer. ">
<polygon fill="#ffffff" stroke="#000000" points="96,-137.5 96,-156.5 218,-156.5 218,-137.5 96,-137.5"/>
<text text-anchor="middle" x="157" y="-144.5" font-family="Helvetica,sans-Serif" font-size="10.00" fill="#000000">ls::LambertianBsdfLayer</text>
</a>
</g>
</g>
<!-- Node0&#45;&gt;Node1 -->
<g id="edge1" class="edge">
<title>Node0&#45;&gt;Node1</title>
<path fill="none" stroke="#191970" d="M44.2786,-94.8308C56.2528,-105.6689 73.0376,-119.3069 90,-128 97.4243,-131.8049 105.7138,-134.939 113.8627,-137.4875"/>
<polygon fill="#191970" stroke="#191970" points="46.5148,-92.1304 36.8144,-87.8699 41.7407,-97.2498 46.5148,-92.1304"/>
</g>
<!-- Node2 -->
<g id="node3" class="node">
<title>Node2</title>
<g id="a_node3"><a xlink:href="classls_1_1MicrosurfaceDielectricBsdfLayer.html" target="_top" xlink:title="Microsurface dielectric BSDF layer. ">
<polygon fill="#ffffff" stroke="#000000" points="93,-88 93,-118 221,-118 221,-88 93,-88"/>
<text text-anchor="start" x="101" y="-106" font-family="Helvetica,sans-Serif" font-size="10.00" fill="#000000">ls::MicrosurfaceDielectric</text>
<text text-anchor="middle" x="157" y="-95" font-family="Helvetica,sans-Serif" font-size="10.00" fill="#000000">BsdfLayer</text>
</a>
</g>
</g>
<!-- Node0&#45;&gt;Node2 -->
<g id="edge2" class="edge">
<title>Node0&#45;&gt;Node2</title>
<path fill="none" stroke="#191970" d="M64.3023,-85.1735C73.2453,-86.8933 83.0487,-88.7786 92.8272,-90.6591"/>
<polygon fill="#191970" stroke="#191970" points="64.7333,-81.6923 54.2523,-83.2408 63.4113,-88.5664 64.7333,-81.6923"/>
</g>
<!-- Node3 -->
<g id="node4" class="node">
<title>Node3</title>
<g id="a_node4"><a xlink:href="classls_1_1MicrosurfaceLambertianBrdfLayer.html" target="_top" xlink:title="Microsurface Lambertian BRDF layer. ">
<polygon fill="#ffffff" stroke="#000000" points="90,-39 90,-69 224,-69 224,-39 90,-39"/>
<text text-anchor="start" x="98" y="-57" font-family="Helvetica,sans-Serif" font-size="10.00" fill="#000000">ls::MicrosurfaceLambertian</text>
<text text-anchor="middle" x="157" y="-46" font-family="Helvetica,sans-Serif" font-size="10.00" fill="#000000">BrdfLayer</text>
</a>
</g>
</g>
<!-- Node0&#45;&gt;Node3 -->
<g id="edge3" class="edge">
<title>Node0&#45;&gt;Node3</title>
<path fill="none" stroke="#191970" d="M64.3541,-71.1039C72.3823,-69.6217 81.1021,-68.0119 89.8736,-66.3926"/>
<polygon fill="#191970" stroke="#191970" points="63.4506,-67.7114 54.2523,-72.9688 64.7215,-74.5951 63.4506,-67.7114"/>
</g>
<!-- Node4 -->
<g id="node5" class="node">
<title>Node4</title>
<g id="a_node5"><a xlink:href="classls_1_1NullBsdfLayer.html" target="_top" xlink:title="Null BSDF layer. ">
<polygon fill="#ffffff" stroke="#000000" points="111,-.5 111,-19.5 203,-19.5 203,-.5 111,-.5"/>
<text text-anchor="middle" x="157" y="-7.5" font-family="Helvetica,sans-Serif" font-size="10.00" fill="#000000">ls::NullBsdfLayer</text>
</a>
</g>
</g>
<!-- Node0&#45;&gt;Node4 -->
<g id="edge4" class="edge">
<title>Node0&#45;&gt;Node4</title>
<path fill="none" stroke="#191970" d="M44.8631,-61.579C56.8705,-51.2808 73.47,-38.4088 90,-30 98.2229,-25.817 107.4685,-22.355 116.4049,-19.5545"/>
<polygon fill="#191970" stroke="#191970" points="42.5274,-58.9722 37.3412,-68.2109 47.1568,-64.2228 42.5274,-58.9722"/>
</g>
</g>
</svg>
