<?xml version="1.0" encoding="UTF-8" standalone="no"?>
<!DOCTYPE svg PUBLIC "-//W3C//DTD SVG 1.1//EN"
 "http://www.w3.org/Graphics/SVG/1.1/DTD/svg11.dtd">
<!-- Generated by graphviz version 2.40.1 (20161225.0304)
 -->
<!-- Title: Graphical Class Hierarchy Pages: 1 -->
<svg width="248pt" height="78pt"
 viewBox="0.00 0.00 248.00 77.50" xmlns="http://www.w3.org/2000/svg" xmlns:xlink="http://www.w3.org/1999/xlink">
<g id="graph0" class="graph" transform="scale(1 1) rotate(0) translate(4 73.5)">
<title>Graphical Class Hierarchy</title>
<polygon fill="#ffffff" stroke="transparent" points="-4,4 -4,-73.5 244,-73.5 244,4 -4,4"/>
<!-- Node0 -->
<g id="node1" class="node">
<title>Node0</title>
<g id="a_node1"><a xlink:href="classls_1_1Medium.html" target="_top" xlink:title="Medium interface. ">
<polygon fill="#ffffff" stroke="#000000" points="0,-22.5 0,-41.5 65,-41.5 65,-22.5 0,-22.5"/>
<text text-anchor="middle" x="32.5" y="-29.5" font-family="Helvetica,sans-Serif" font-size="10.00" fill="#000000">ls::Medium</text>
</a>
</g>
</g>
<!-- Node1 -->
<g id="node2" class="node">
<title>Node1</title>
<g id="a_node2"><a xlink:href="classls_1_1HenyeyGreensteinPhaseMedium.html" target="_top" xlink:title="Henyey&#45;Greenstein phase medium. ">
<polygon fill="#ffffff" stroke="#000000" points="101,-39 101,-69 240,-69 240,-39 101,-39"/>
<text text-anchor="start" x="109" y="-57" font-family="Helvetica,sans-Serif" font-size="10.00" fill="#000000">ls::HenyeyGreensteinPhase</text>
<text text-anchor="middle" x="170.5" y="-46" font-family="Helvetica,sans-Serif" font-size="10.00" fill="#000000">Medium</text>
</a>
</g>
</g>
<!-- Node0&#45;&gt;Node1 -->
<g id="edge1" class="edge">
<title>Node0&#45;&gt;Node1</title>
<path fill="none" stroke="#191970" d="M75.1802,-38.8041C83.333,-40.1038 92.0624,-41.4955 100.8067,-42.8895"/>
<polygon fill="#191970" stroke="#191970" points="75.6304,-35.3317 65.2041,-37.2137 74.5283,-42.2445 75.6304,-35.3317"/>
</g>
<!-- Node2 -->
<g id="node3" class="node">
<title>Node2</title>
<g id="a_node3"><a xlink:href="classls_1_1RayleighPhaseMedium.html" target="_top" xlink:title="Rayleigh phase medium. ">
<polygon fill="#ffffff" stroke="#000000" points="105,-.5 105,-19.5 236,-19.5 236,-.5 105,-.5"/>
<text text-anchor="middle" x="170.5" y="-7.5" font-family="Helvetica,sans-Serif" font-size="10.00" fill="#000000">ls::RayleighPhaseMedium</text>
</a>
</g>
</g>
<!-- Node0&#45;&gt;Node2 -->
<g id="edge2" class="edge">
<title>Node0&#45;&gt;Node2</title>
<path fill="none" stroke="#191970" d="M75.1802,-25.1959C86.425,-23.4033 98.7668,-21.4357 110.7315,-19.5283"/>
<polygon fill="#191970" stroke="#191970" points="74.5283,-21.7555 65.2041,-26.7863 75.6304,-28.6683 74.5283,-21.7555"/>
</g>
</g>
</svg>
