<?xml version="1.0" encoding="UTF-8" standalone="no"?>
<!DOCTYPE svg PUBLIC "-//W3C//DTD SVG 1.1//EN"
 "http://www.w3.org/Graphics/SVG/1.1/DTD/svg11.dtd">
<!-- Generated by graphviz version 2.40.1 (20161225.0304)
 -->
<!-- Title: Graphical Class Hierarchy Pages: 1 -->
<svg width="248pt" height="116pt"
 viewBox="0.00 0.00 248.00 115.50" xmlns="http://www.w3.org/2000/svg" xmlns:xlink="http://www.w3.org/1999/xlink">
<g id="graph0" class="graph" transform="scale(1 1) rotate(0) translate(4 111.5)">
<title>Graphical Class Hierarchy</title>
<polygon fill="#ffffff" stroke="transparent" points="-4,4 -4,-111.5 244,-111.5 244,4 -4,4"/>
<!-- Node0 -->
<g id="node1" class="node">
<title>Node0</title>
<g id="a_node1"><a xlink:href="classls_1_1Medium.html" target="_top" xlink:title="Medium interface. ">
<polygon fill="#ffffff" stroke="#000000" points="0,-38.5 0,-57.5 65,-57.5 65,-38.5 0,-38.5"/>
<text text-anchor="middle" x="32.5" y="-45.5" font-family="Helvetica,sans-Serif" font-size="10.00" fill="#000000">ls::Medium</text>
</a>
</g>
</g>
<!-- Node1 -->
<g id="node2" class="node">
<title>Node1</title>
<g id="a_node2"><a xlink:href="classls_1_1HenyeyGreensteinPhaseMedium.html" target="_top" xlink:title="Henyey&#45;Greenstein phase medium. ">
<polygon fill="#ffffff" stroke="#000000" points="101,-77 101,-107 240,-107 240,-77 101,-77"/>
<text text-anchor="start" x="109" y="-95" font-family="Helvetica,sans-Serif" font-size="10.00" fill="#000000">ls::HenyeyGreensteinPhase</text>
<text text-anchor="middle" x="170.5" y="-84" font-family="Helvetica,sans-Serif" font-size="10.00" fill="#000000">Medium</text>
</a>
</g>
</g>
<!-- Node0&#45;&gt;Node1 -->
<g id="edge1" class="edge">
<title>Node0&#45;&gt;Node1</title>
<path fill="none" stroke="#191970" d="M72.0157,-60.5992C87.9919,-65.6931 106.5656,-71.6151 123.2495,-76.9346"/>
<polygon fill="#191970" stroke="#191970" points="73.0346,-57.2505 62.4439,-57.5473 70.9082,-63.9198 73.0346,-57.2505"/>
</g>
<!-- Node2 -->
<g id="node3" class="node">
<title>Node2</title>
<g id="a_node3"><a xlink:href="classls_1_1RayleighPhaseMedium.html" target="_top" xlink:title="Rayleigh phase medium. ">
<polygon fill="#ffffff" stroke="#000000" points="105,-38.5 105,-57.5 236,-57.5 236,-38.5 105,-38.5"/>
<text text-anchor="middle" x="170.5" y="-45.5" font-family="Helvetica,sans-Serif" font-size="10.00" fill="#000000">ls::RayleighPhaseMedium</text>
</a>
</g>
</g>
<!-- Node0&#45;&gt;Node2 -->
<g id="edge2" class="edge">
<title>Node0&#45;&gt;Node2</title>
<path fill="none" stroke="#191970" d="M75.422,-48C84.7956,-48 94.922,-48 104.951,-48"/>
<polygon fill="#191970" stroke="#191970" points="75.2041,-44.5001 65.2041,-48 75.204,-51.5001 75.2041,-44.5001"/>
</g>
<!-- Node3 -->
<g id="node4" class="node">
<title>Node3</title>
<g id="a_node4"><a xlink:href="classls_1_1SggxPhaseMedium.html" target="_top" xlink:title="SGGX phase medium. ">
<polygon fill="#ffffff" stroke="#000000" points="113,-.5 113,-19.5 228,-19.5 228,-.5 113,-.5"/>
<text text-anchor="middle" x="170.5" y="-7.5" font-family="Helvetica,sans-Serif" font-size="10.00" fill="#000000">ls::SggxPhaseMedium</text>
</a>
</g>
</g>
<!-- Node0&#45;&gt;Node3 -->
<g id="edge3" class="edge">
<title>Node0&#45;&gt;Node3</title>
<path fill="none" stroke="#191970" d="M75.0858,-36.1615C83.6642,-33.7842 92.619,-31.3079 101,-29 112.2156,-25.9115 124.4546,-22.5595 135.4931,-19.543"/>
<polygon fill="#191970" stroke="#191970" points="73.9462,-32.8454 65.2454,-38.8907 75.8171,-39.5907 73.9462,-32.8454"/>
</g>
</g>
</svg>
