<?xml version="1.0" encoding="UTF-8" standalone="no"?>
<!DOCTYPE svg PUBLIC "-//W3C//DTD SVG 1.1//EN"
 "http://www.w3.org/Graphics/SVG/1.1/DTD/svg11.dtd">
<!-- Generated by graphviz version 2.40.1 (20161225.0304)
 -->
<!-- Title: Graphical Class Hierarchy Pages: 1 -->
<svg width="234pt" height="252pt"
 viewBox="0.00 0.00 234.00 252.00" xmlns="http://www.w3.org/2000/svg" xmlns:xlink="http://www.w3.org/1999/xlink">
<g id="graph0" class="graph" transform="scale(1 1) rotate(0) translate(4 248)">
<title>Graphical Class Hierarchy</title>
<polygon fill="#ffffff" stroke="transparent" points="-4,4 -4,-248 230,-248 230,4 -4,4"/>
<!-- Node0 -->
<g id="node1" class="node">
<title>Node0</title>
<g id="a_node1"><a xlink:href="classls_1_1Layer.html" target="_top" xlink:title="Layer interface. ">
<polygon fill="#ffffff" stroke="#000000" points="0,-106.5 0,-125.5 54,-125.5 54,-106.5 0,-106.5"/>
<text text-anchor="middle" x="27" y="-113.5" font-family="Helvetica,sans-Serif" font-size="10.00" fill="#000000">ls::Layer</text>
</a>
</g>
</g>
<!-- Node1 -->
<g id="node2" class="node">
<title>Node1</title>
<g id="a_node2"><a xlink:href="classls_1_1LambertianLayer.html" target="_top" xlink:title="Lambertian layer. ">
<polygon fill="#ffffff" stroke="#000000" points="107,-224.5 107,-243.5 209,-243.5 209,-224.5 107,-224.5"/>
<text text-anchor="middle" x="158" y="-231.5" font-family="Helvetica,sans-Serif" font-size="10.00" fill="#000000">ls::LambertianLayer</text>
</a>
</g>
</g>
<!-- Node0&#45;&gt;Node1 -->
<g id="edge1" class="edge">
<title>Node0&#45;&gt;Node1</title>
<path fill="none" stroke="#191970" d="M34.1244,-134.9987C43.5155,-157.4504 62.1741,-194.3573 90,-215 95.2176,-218.8707 101.1894,-221.9531 107.3795,-224.4076"/>
<polygon fill="#191970" stroke="#191970" points="37.3102,-133.5381 30.3603,-125.5413 30.8064,-136.1267 37.3102,-133.5381"/>
</g>
<!-- Node2 -->
<g id="node3" class="node">
<title>Node2</title>
<g id="a_node3"><a xlink:href="classls_1_1MicrosurfaceConductiveLayer.html" target="_top" xlink:title="Microsurface conductive layer. ">
<polygon fill="#ffffff" stroke="#000000" points="90,-175 90,-205 226,-205 226,-175 90,-175"/>
<text text-anchor="start" x="98" y="-193" font-family="Helvetica,sans-Serif" font-size="10.00" fill="#000000">ls::MicrosurfaceConductive</text>
<text text-anchor="middle" x="158" y="-182" font-family="Helvetica,sans-Serif" font-size="10.00" fill="#000000">Layer</text>
</a>
</g>
</g>
<!-- Node0&#45;&gt;Node2 -->
<g id="edge2" class="edge">
<title>Node0&#45;&gt;Node2</title>
<path fill="none" stroke="#191970" d="M44.463,-132.4845C56.5161,-143.1744 73.3196,-156.7773 90,-166 95.9163,-169.2712 102.3623,-172.2302 108.8513,-174.8632"/>
<polygon fill="#191970" stroke="#191970" points="46.6899,-129.7788 36.9374,-125.6389 41.9796,-134.957 46.6899,-129.7788"/>
</g>
<!-- Node3 -->
<g id="node4" class="node">
<title>Node3</title>
<g id="a_node4"><a xlink:href="classls_1_1MicrosurfaceDielectricLayer.html" target="_top" xlink:title="Microsurface dielectric layer. ">
<polygon fill="#ffffff" stroke="#000000" points="94,-126 94,-156 222,-156 222,-126 94,-126"/>
<text text-anchor="start" x="102" y="-144" font-family="Helvetica,sans-Serif" font-size="10.00" fill="#000000">ls::MicrosurfaceDielectric</text>
<text text-anchor="middle" x="158" y="-133" font-family="Helvetica,sans-Serif" font-size="10.00" fill="#000000">Layer</text>
</a>
</g>
</g>
<!-- Node0&#45;&gt;Node3 -->
<g id="edge3" class="edge">
<title>Node0&#45;&gt;Node3</title>
<path fill="none" stroke="#191970" d="M64.177,-123.0949C73.4647,-124.8673 83.6934,-126.8194 93.8777,-128.7629"/>
<polygon fill="#191970" stroke="#191970" points="64.6221,-119.6167 54.1433,-121.18 63.3099,-126.4926 64.6221,-119.6167"/>
</g>
<!-- Node4 -->
<g id="node5" class="node">
<title>Node4</title>
<g id="a_node5"><a xlink:href="classls_1_1MicrosurfaceLambertianLayer.html" target="_top" xlink:title="Microsurface Lambertian layer. ">
<polygon fill="#ffffff" stroke="#000000" points="91,-77 91,-107 225,-107 225,-77 91,-77"/>
<text text-anchor="start" x="99" y="-95" font-family="Helvetica,sans-Serif" font-size="10.00" fill="#000000">ls::MicrosurfaceLambertian</text>
<text text-anchor="middle" x="158" y="-84" font-family="Helvetica,sans-Serif" font-size="10.00" fill="#000000">Layer</text>
</a>
</g>
</g>
<!-- Node0&#45;&gt;Node4 -->
<g id="edge4" class="edge">
<title>Node0&#45;&gt;Node4</title>
<path fill="none" stroke="#191970" d="M63.9897,-109.2233C72.4211,-107.6786 81.6357,-105.9904 90.893,-104.2944"/>
<polygon fill="#191970" stroke="#191970" points="63.3488,-105.7823 54.1433,-111.0272 64.6103,-112.6677 63.3488,-105.7823"/>
</g>
<!-- Node5 -->
<g id="node6" class="node">
<title>Node5</title>
<g id="a_node6"><a xlink:href="classls_1_1NullLayer.html" target="_top" xlink:title="Null layer. ">
<polygon fill="#ffffff" stroke="#000000" points="122.5,-38.5 122.5,-57.5 193.5,-57.5 193.5,-38.5 122.5,-38.5"/>
<text text-anchor="middle" x="158" y="-45.5" font-family="Helvetica,sans-Serif" font-size="10.00" fill="#000000">ls::NullLayer</text>
</a>
</g>
</g>
<!-- Node0&#45;&gt;Node5 -->
<g id="edge5" class="edge">
<title>Node0&#45;&gt;Node5</title>
<path fill="none" stroke="#191970" d="M44.8517,-99.5566C56.8545,-89.2492 73.4531,-76.3754 90,-68 100.1009,-62.8873 111.724,-58.8664 122.4707,-55.8128"/>
<polygon fill="#191970" stroke="#191970" points="42.5125,-96.9529 37.3335,-106.1957 47.146,-102.2 42.5125,-96.9529"/>
</g>
<!-- Node6 -->
<g id="node7" class="node">
<title>Node6</title>
<g id="a_node7"><a xlink:href="classls_1_1OrenNayarDiffuseLayer.html" target="_top" xlink:title="Oren&#45;Nayar diffuse layer. ">
<polygon fill="#ffffff" stroke="#000000" points="91.5,-.5 91.5,-19.5 224.5,-19.5 224.5,-.5 91.5,-.5"/>
<text text-anchor="middle" x="158" y="-7.5" font-family="Helvetica,sans-Serif" font-size="10.00" fill="#000000">ls::OrenNayarDiffuseLayer</text>
</a>
</g>
</g>
<!-- Node0&#45;&gt;Node6 -->
<g id="edge6" class="edge">
<title>Node0&#45;&gt;Node6</title>
<path fill="none" stroke="#191970" d="M35.7901,-97.2298C46.0482,-77.36 64.8636,-46.5032 90,-29 95.5326,-25.1475 101.8266,-22.0734 108.2995,-19.621"/>
<polygon fill="#191970" stroke="#191970" points="32.6287,-95.7271 31.3344,-106.2426 38.9038,-98.8294 32.6287,-95.7271"/>
</g>
</g>
</svg>
