<?xml version="1.0" encoding="UTF-8" standalone="no"?>
<!DOCTYPE svg PUBLIC "-//W3C//DTD SVG 1.1//EN"
 "http://www.w3.org/Graphics/SVG/1.1/DTD/svg11.dtd">
<!-- Generated by graphviz version 2.40.1 (20161225.0304)
 -->
<!-- Title: Graphical Class Hierarchy Pages: 1 -->
<svg width="260pt" height="142pt"
 viewBox="0.00 0.00 260.00 142.00" xmlns="http://www.w3.org/2000/svg" xmlns:xlink="http://www.w3.org/1999/xlink">
<g id="graph0" class="graph" transform="scale(1 1) rotate(0) translate(4 138)">
<title>Graphical Class Hierarchy</title>
<polygon fill="#ffffff" stroke="transparent" points="-4,4 -4,-138 256,-138 256,4 -4,4"/>
<!-- Node0 -->
<g id="node1" class="node">
<title>Node0</title>
<g id="a_node1"><a xlink:href="classls_1_1Medium.html" target="_top" xlink:title="Medium interface. ">
<polygon fill="#ffffff" stroke="#000000" points="0,-57.5 0,-76.5 65,-76.5 65,-57.5 0,-57.5"/>
<text text-anchor="middle" x="32.5" y="-64.5" font-family="Helvetica,sans-Serif" font-size="10.00" fill="#000000">ls::Medium</text>
</a>
</g>
</g>
<!-- Node1 -->
<g id="node2" class="node">
<title>Node1</title>
<g id="a_node2"><a xlink:href="classls_1_1HenyeyGreenstein2Medium.html" target="_top" xlink:title="Henyey&#45;Greenstein 2&#45;lobe medium. ">
<polygon fill="#ffffff" stroke="#000000" points="101,-114.5 101,-133.5 252,-133.5 252,-114.5 101,-114.5"/>
<text text-anchor="middle" x="176.5" y="-121.5" font-family="Helvetica,sans-Serif" font-size="10.00" fill="#000000">ls::HenyeyGreenstein2Medium</text>
</a>
</g>
</g>
<!-- Node0&#45;&gt;Node1 -->
<g id="edge1" class="edge">
<title>Node0&#45;&gt;Node1</title>
<path fill="none" stroke="#191970" d="M55.871,-81.9596C68.777,-89.7019 85.3275,-98.8036 101,-105 110.3015,-108.6775 120.5341,-111.8165 130.3824,-114.4211"/>
<polygon fill="#191970" stroke="#191970" points="57.5351,-78.8742 47.1821,-76.6232 53.8717,-84.8391 57.5351,-78.8742"/>
</g>
<!-- Node2 -->
<g id="node3" class="node">
<title>Node2</title>
<g id="a_node3"><a xlink:href="classls_1_1HenyeyGreensteinMedium.html" target="_top" xlink:title="Henyey&#45;Greenstein medium. ">
<polygon fill="#ffffff" stroke="#000000" points="103.5,-76.5 103.5,-95.5 249.5,-95.5 249.5,-76.5 103.5,-76.5"/>
<text text-anchor="middle" x="176.5" y="-83.5" font-family="Helvetica,sans-Serif" font-size="10.00" fill="#000000">ls::HenyeyGreensteinMedium</text>
</a>
</g>
</g>
<!-- Node0&#45;&gt;Node2 -->
<g id="edge2" class="edge">
<title>Node0&#45;&gt;Node2</title>
<path fill="none" stroke="#191970" d="M75.1813,-72.6316C84.3684,-73.8437 94.3235,-75.1573 104.2841,-76.4715"/>
<polygon fill="#191970" stroke="#191970" points="75.5478,-69.1497 65.1758,-71.3114 74.632,-76.0895 75.5478,-69.1497"/>
</g>
<!-- Node3 -->
<g id="node4" class="node">
<title>Node3</title>
<g id="a_node4"><a xlink:href="classls_1_1RayleighMedium.html" target="_top" xlink:title="Rayleigh medium. ">
<polygon fill="#ffffff" stroke="#000000" points="125,-38.5 125,-57.5 228,-57.5 228,-38.5 125,-38.5"/>
<text text-anchor="middle" x="176.5" y="-45.5" font-family="Helvetica,sans-Serif" font-size="10.00" fill="#000000">ls::RayleighMedium</text>
</a>
</g>
</g>
<!-- Node0&#45;&gt;Node3 -->
<g id="edge3" class="edge">
<title>Node0&#45;&gt;Node3</title>
<path fill="none" stroke="#191970" d="M75.5032,-61.326C90.9802,-59.2839 108.6033,-56.9586 124.7479,-54.8284"/>
<polygon fill="#191970" stroke="#191970" points="74.632,-57.9105 65.1758,-62.6886 75.5478,-64.8503 74.632,-57.9105"/>
</g>
<!-- Node4 -->
<g id="node5" class="node">
<title>Node4</title>
<g id="a_node5"><a xlink:href="classls_1_1SggxMedium.html" target="_top" xlink:title="SGGX medium. ">
<polygon fill="#ffffff" stroke="#000000" points="133,-.5 133,-19.5 220,-19.5 220,-.5 133,-.5"/>
<text text-anchor="middle" x="176.5" y="-7.5" font-family="Helvetica,sans-Serif" font-size="10.00" fill="#000000">ls::SggxMedium</text>
</a>
</g>
</g>
<!-- Node0&#45;&gt;Node4 -->
<g id="edge4" class="edge">
<title>Node0&#45;&gt;Node4</title>
<path fill="none" stroke="#191970" d="M55.871,-52.0404C68.777,-44.2981 85.3275,-35.1964 101,-29 111.0557,-25.0243 122.1996,-21.678 132.7696,-18.9559"/>
<polygon fill="#191970" stroke="#191970" points="53.8717,-49.1609 47.1821,-57.3768 57.5351,-55.1258 53.8717,-49.1609"/>
</g>
</g>
</svg>
