<?xml version="1.0" encoding="UTF-8" standalone="no"?>
<!DOCTYPE svg PUBLIC "-//W3C//DTD SVG 1.1//EN"
 "http://www.w3.org/Graphics/SVG/1.1/DTD/svg11.dtd">
<!-- Generated by graphviz version 2.43.0 (0)
 -->
<!-- Title: Graphical Class Hierarchy Pages: 1 -->
<svg width="282pt" height="142pt"
 viewBox="0.00 0.00 282.00 142.00" xmlns="http://www.w3.org/2000/svg" xmlns:xlink="http://www.w3.org/1999/xlink">
<g id="graph0" class="graph" transform="scale(1 1) rotate(0) translate(4 138)">
<title>Graphical Class Hierarchy</title>
<polygon fill="white" stroke="transparent" points="-4,4 -4,-138 278,-138 278,4 -4,4"/>
<!-- Node0 -->
<g id="node1" class="node">
<title>Node0</title>
<g id="a_node1"><a xlink:href="classls_1_1Medium.html" target="_top" xlink:title="Medium interface.">
<polygon fill="white" stroke="black" points="0,-57.5 0,-76.5 71,-76.5 71,-57.5 0,-57.5"/>
<text text-anchor="middle" x="35.5" y="-64.5" font-family="Helvetica,sans-Serif" font-size="10.00">ls::Medium</text>
</a>
</g>
</g>
<!-- Node1 -->
<g id="node2" class="node">
<title>Node1</title>
<g id="a_node2"><a xlink:href="classls_1_1HenyeyGreenstein2Medium.html" target="_top" xlink:title="Henyey&#45;Greenstein 2&#45;lobe medium.">
<polygon fill="white" stroke="black" points="107,-114.5 107,-133.5 274,-133.5 274,-114.5 107,-114.5"/>
<text text-anchor="middle" x="190.5" y="-121.5" font-family="Helvetica,sans-Serif" font-size="10.00">ls::HenyeyGreenstein2Medium</text>
</a>
</g>
</g>
<!-- Node0&#45;&gt;Node1 -->
<g id="edge1" class="edge">
<title>Node0&#45;&gt;Node1</title>
<path fill="none" stroke="midnightblue" d="M60.3,-81.9C73.62,-89.71 90.77,-98.88 107,-105 116.9,-108.73 127.76,-111.87 138.25,-114.45"/>
<polygon fill="midnightblue" stroke="midnightblue" points="61.72,-78.67 51.34,-76.53 58.12,-84.68 61.72,-78.67"/>
</g>
<!-- Node2 -->
<g id="node3" class="node">
<title>Node2</title>
<g id="a_node3"><a xlink:href="classls_1_1HenyeyGreensteinMedium.html" target="_top" xlink:title="Henyey&#45;Greenstein medium.">
<polygon fill="white" stroke="black" points="110,-76.5 110,-95.5 271,-95.5 271,-76.5 110,-76.5"/>
<text text-anchor="middle" x="190.5" y="-83.5" font-family="Helvetica,sans-Serif" font-size="10.00">ls::HenyeyGreensteinMedium</text>
</a>
</g>
</g>
<!-- Node0&#45;&gt;Node2 -->
<g id="edge2" class="edge">
<title>Node0&#45;&gt;Node2</title>
<path fill="none" stroke="midnightblue" d="M81.22,-72.55C91.16,-73.79 101.96,-75.13 112.77,-76.47"/>
<polygon fill="midnightblue" stroke="midnightblue" points="81.57,-69.07 71.22,-71.31 80.71,-76.02 81.57,-69.07"/>
</g>
<!-- Node3 -->
<g id="node4" class="node">
<title>Node3</title>
<g id="a_node4"><a xlink:href="classls_1_1RayleighMedium.html" target="_top" xlink:title="Rayleigh medium.">
<polygon fill="white" stroke="black" points="134,-38.5 134,-57.5 247,-57.5 247,-38.5 134,-38.5"/>
<text text-anchor="middle" x="190.5" y="-45.5" font-family="Helvetica,sans-Serif" font-size="10.00">ls::RayleighMedium</text>
</a>
</g>
</g>
<!-- Node0&#45;&gt;Node3 -->
<g id="edge3" class="edge">
<title>Node0&#45;&gt;Node3</title>
<path fill="none" stroke="midnightblue" d="M81.15,-61.46C97.65,-59.41 116.56,-57.06 133.92,-54.9"/>
<polygon fill="midnightblue" stroke="midnightblue" points="80.71,-57.98 71.22,-62.69 81.57,-64.93 80.71,-57.98"/>
</g>
<!-- Node4 -->
<g id="node5" class="node">
<title>Node4</title>
<g id="a_node5"><a xlink:href="classls_1_1SggxMedium.html" target="_top" xlink:title="SGGX medium.">
<polygon fill="white" stroke="black" points="143,-0.5 143,-19.5 238,-19.5 238,-0.5 143,-0.5"/>
<text text-anchor="middle" x="190.5" y="-7.5" font-family="Helvetica,sans-Serif" font-size="10.00">ls::SggxMedium</text>
</a>
</g>
</g>
<!-- Node0&#45;&gt;Node4 -->
<g id="edge4" class="edge">
<title>Node0&#45;&gt;Node4</title>
<path fill="none" stroke="midnightblue" d="M60.3,-52.1C73.62,-44.29 90.77,-35.12 107,-29 118.28,-24.75 130.8,-21.27 142.6,-18.51"/>
<polygon fill="midnightblue" stroke="midnightblue" points="58.12,-49.32 51.34,-57.47 61.72,-55.33 58.12,-49.32"/>
</g>
</g>
</svg>
