<?xml version="1.0" encoding="UTF-8" standalone="no"?>
<!DOCTYPE svg PUBLIC "-//W3C//DTD SVG 1.1//EN"
 "http://www.w3.org/Graphics/SVG/1.1/DTD/svg11.dtd">
<!-- Generated by graphviz version 2.40.1 (20161225.0304)
 -->
<!-- Title: Graphical Class Hierarchy Pages: 1 -->
<svg width="255pt" height="104pt"
 viewBox="0.00 0.00 255.00 104.00" xmlns="http://www.w3.org/2000/svg" xmlns:xlink="http://www.w3.org/1999/xlink">
<g id="graph0" class="graph" transform="scale(1 1) rotate(0) translate(4 100)">
<title>Graphical Class Hierarchy</title>
<polygon fill="#ffffff" stroke="transparent" points="-4,4 -4,-100 251,-100 251,4 -4,4"/>
<!-- Node0 -->
<g id="node1" class="node">
<title>Node0</title>
<g id="a_node1"><a xlink:href="classls_1_1Medium.html" target="_top" xlink:title="Medium interface. ">
<polygon fill="#ffffff" stroke="#000000" points="0,-38.5 0,-57.5 65,-57.5 65,-38.5 0,-38.5"/>
<text text-anchor="middle" x="32.5" y="-45.5" font-family="Helvetica,sans-Serif" font-size="10.00" fill="#000000">ls::Medium</text>
</a>
</g>
</g>
<!-- Node1 -->
<g id="node2" class="node">
<title>Node1</title>
<g id="a_node2"><a xlink:href="classls_1_1HenyeyGreensteinMedium.html" target="_top" xlink:title="Henyey&#45;Greenstein medium. ">
<polygon fill="#ffffff" stroke="#000000" points="101,-76.5 101,-95.5 247,-95.5 247,-76.5 101,-76.5"/>
<text text-anchor="middle" x="174" y="-83.5" font-family="Helvetica,sans-Serif" font-size="10.00" fill="#000000">ls::HenyeyGreensteinMedium</text>
</a>
</g>
</g>
<!-- Node0&#45;&gt;Node1 -->
<g id="edge1" class="edge">
<title>Node0&#45;&gt;Node1</title>
<path fill="none" stroke="#191970" d="M75.0638,-59.9194C83.644,-62.2902 92.6051,-64.7434 101,-67 112.6352,-70.1276 125.3355,-73.4611 136.8328,-76.4485"/>
<polygon fill="#191970" stroke="#191970" points="75.7948,-56.4901 65.2232,-57.1909 73.9244,-63.2356 75.7948,-56.4901"/>
</g>
<!-- Node2 -->
<g id="node3" class="node">
<title>Node2</title>
<g id="a_node3"><a xlink:href="classls_1_1RayleighMedium.html" target="_top" xlink:title="Rayleigh medium. ">
<polygon fill="#ffffff" stroke="#000000" points="122.5,-38.5 122.5,-57.5 225.5,-57.5 225.5,-38.5 122.5,-38.5"/>
<text text-anchor="middle" x="174" y="-45.5" font-family="Helvetica,sans-Serif" font-size="10.00" fill="#000000">ls::RayleighMedium</text>
</a>
</g>
</g>
<!-- Node0&#45;&gt;Node2 -->
<g id="edge2" class="edge">
<title>Node0&#45;&gt;Node2</title>
<path fill="none" stroke="#191970" d="M75.6447,-48C90.3459,-48 106.933,-48 122.2394,-48"/>
<polygon fill="#191970" stroke="#191970" points="75.3186,-44.5001 65.3186,-48 75.3186,-51.5001 75.3186,-44.5001"/>
</g>
<!-- Node3 -->
<g id="node4" class="node">
<title>Node3</title>
<g id="a_node4"><a xlink:href="classls_1_1SggxMedium.html" target="_top" xlink:title="SGGX medium. ">
<polygon fill="#ffffff" stroke="#000000" points="130.5,-.5 130.5,-19.5 217.5,-19.5 217.5,-.5 130.5,-.5"/>
<text text-anchor="middle" x="174" y="-7.5" font-family="Helvetica,sans-Serif" font-size="10.00" fill="#000000">ls::SggxMedium</text>
</a>
</g>
</g>
<!-- Node0&#45;&gt;Node3 -->
<g id="edge3" class="edge">
<title>Node0&#45;&gt;Node3</title>
<path fill="none" stroke="#191970" d="M75.0638,-36.0806C83.644,-33.7098 92.6051,-31.2566 101,-29 112.6352,-25.8724 125.3355,-22.5389 136.8328,-19.5515"/>
<polygon fill="#191970" stroke="#191970" points="73.9244,-32.7644 65.2232,-38.8091 75.7948,-39.5099 73.9244,-32.7644"/>
</g>
</g>
</svg>
